<?xml version="1.0" encoding="UTF-8" standalone="no"?>
<!-- Created with Inkscape (http://www.inkscape.org/) -->

<svg
   xmlns:dc="http://purl.org/dc/elements/1.1/"
   xmlns:cc="http://creativecommons.org/ns#"
   xmlns:rdf="http://www.w3.org/1999/02/22-rdf-syntax-ns#"
   xmlns:svg="http://www.w3.org/2000/svg"
   xmlns="http://www.w3.org/2000/svg"
   xmlns:sodipodi="http://sodipodi.sourceforge.net/DTD/sodipodi-0.dtd"
   xmlns:inkscape="http://www.inkscape.org/namespaces/inkscape"
   width="646.84528mm"
   height="694.49011mm"
   viewBox="0 0 646.84527 694.4901"
   version="1.1"
   id="svg8"
   sodipodi:docname="logo.svg"
   inkscape:version="0.92.3 (2405546, 2018-03-11)">
  <defs
     id="defs2" />
  <sodipodi:namedview
     id="base"
     pagecolor="#ffffff"
     bordercolor="#666666"
     borderopacity="1.0"
     inkscape:pageopacity="0.0"
     inkscape:pageshadow="2"
     inkscape:zoom="0.29918852"
     inkscape:cx="962.63161"
     inkscape:cy="905.9631"
     inkscape:document-units="mm"
     inkscape:current-layer="layer1"
     showgrid="true"
     showborder="false"
     inkscape:snap-others="false"
     inkscape:snap-nodes="false"
     inkscape:window-width="1920"
     inkscape:window-height="1046"
     inkscape:window-x="1589"
     inkscape:window-y="-11"
     inkscape:window-maximized="1"
     inkscape:snap-bbox="false"
     inkscape:snap-global="true">
    <inkscape:grid
       type="axonomgrid"
       id="grid934"
       units="px"
       empspacing="5"
       spacingy="13.229167"
       enabled="false"
       originx="699.06227"
       originy="203.01448" />
  </sodipodi:namedview>
  <metadata
     id="metadata5">
    <rdf:RDF>
      <cc:Work
         rdf:about="">
        <dc:format>image/svg+xml</dc:format>
        <dc:type
           rdf:resource="http://purl.org/dc/dcmitype/StillImage" />
        <dc:title />
      </cc:Work>
    </rdf:RDF>
  </metadata>
  <g
     inkscape:label="Layer 1"
     inkscape:groupmode="layer"
     id="layer1"
     transform="translate(699.06225,194.47568)">
    <path
       inkscape:connector-curvature="0"
       style="opacity:1;fill:#707494;fill-opacity:1;stroke:none;stroke-width:0.32552963px;stroke-linecap:butt;stroke-linejoin:miter;stroke-opacity:1"
       d="m -267.82136,181.98864 -79.53797,45.78651 -15.92742,-3.5395 c 0,0 -120.10719,68.33102 -121.63302,68.55389 0.39878,0.2488 4.04455,5.58452 7.08981,10.09268 l -46.52847,26.78435 0.27148,-0.53217 -28.27976,-16.77113 2.42621,32.02968 -0.62626,0.36052 279.95551,162.76483 281.815212,-161.83466 -0.0286,-0.0166 0.148777,-0.005 -0.07439,-1.02683 0.499103,0.11824 -2.630305,-30.91008 -0.096,0.0572 -0.02352,-0.32614 -26.275077,2.09241 -2.88208,11.61799 z m -217.09841,110.8009 c -0.0228,-0.0143 -0.0356,-0.013 -0.0356,0.009 0,0.004 0.0261,-0.007 0.0356,-0.009 z m 180.91693,-38.22114 c 0.70885,0.005 1.4177,0.0158 2.12611,0.0317 11.23484,0.19826 22.17131,1.72088 32.80919,4.56886 10.62452,2.74044 20.12886,6.53127 28.51309,11.37192 7.68556,4.43726 13.68813,8.75095 18.00777,12.94172 2.29423,2.15614 4.22164,4.31883 5.78897,6.48835 l -0.83545,-0.23017 1.62765,31.85551 0.39356,0.049 c -0.0389,0.0779 -0.0763,0.15537 -0.11578,0.23334 7.00356,-1.04691 14.88564,-0.98808 23.64668,0.17741 8.66122,1.10787 18.09868,3.61185 28.31154,7.51196 l 36.10709,13.21129 16.20719,-9.35771 28.79347,16.42971 c -13.60911,7.79038 -35.24411,20.47553 -58.78036,34.36311 l -44.31526,-19.13125 c -7.16595,-3.23896 -13.86582,-5.70953 -20.09955,-7.41215 -6.2471,-1.81014 -12.15764,-2.77771 -17.73183,-2.9018 -5.67402,-0.18145 -11.15462,0.44744 -16.44178,1.88644 -1.37201,0.36645 -2.74675,0.79251 -4.12381,1.27413 l -9.28714,-15.05763 -20.69465,-2.20879 2.09115,32.05513 -0.42217,0.24353 49.40739,28.5258 18.02239,-10.40552 26.31322,15.19182 c -41.00194,24.30964 -76.18864,45.30152 -80.22017,47.7079 l -27.51933,-15.88803 20.3564,-11.75338 -144.77803,-83.58739 -20.35641,11.7528 -41.17251,-23.77069 103.98699,-60.03734 c 10.11353,-5.83902 20.89345,-10.04554 32.33936,-12.61999 10.73056,-2.41352 21.4122,-3.58367 32.04495,-3.50961 z m 32.13207,28.11764 -24.33398,10.02973 1.10692,2.38552 c -4.38427,-1.15001 -8.93227,-1.73254 -13.64553,-1.74019 -0.63997,0 -1.283,0.009 -1.92902,0.0287 -8.13244,0.25205 -16.3296,2.29768 -24.59147,6.12021 l -34.51442,-13.83823 2.1509,32.02972 0.25054,-0.0445 -0.42091,0.24287 54.94646,31.72388 25.80268,-14.89744 c 4.92708,-2.84465 8.83629,-5.67734 11.72798,-8.49936 2.87831,-2.9296 4.60265,-5.82723 5.17286,-8.69203 0.0971,-0.51818 0.15382,-1.03375 0.17549,-1.54691 l 0.15704,-0.007 z"
       id="path4974"
       inkscape:export-filename="C:\Users\emjei\OneDrive\Programming\RUVacant\docs\design\logo\logo.png"
       inkscape:export-xdpi="75.393608"
       inkscape:export-ydpi="75.393608" />
    <path
       inkscape:connector-curvature="0"
       style="fill:#ffffff;fill-opacity:1;stroke:none;stroke-width:0.32552963px;stroke-linecap:butt;stroke-linejoin:miter;stroke-opacity:1"
       d="M -269.79425,150.09195 -552.53964,312.85676 -272.58414,475.62158 9.231075,313.78697 Z m -36.18148,72.57976 c 0.70885,0.005 1.4177,0.0157 2.12611,0.0317 11.23485,0.19826 22.17131,1.72089 32.8092,4.56886 10.62451,2.74045 20.12885,6.53128 28.5131,11.37192 7.68554,4.43726 13.68811,8.75096 18.00776,12.94172 4.40607,4.14085 7.47137,8.30645 9.19685,12.49665 1.81191,4.14029 2.47668,8.36714 1.99387,12.67977 -0.58262,4.25499 -2.0265,8.66155 -4.33172,13.21956 7.00358,-1.04694 14.88566,-0.98811 23.64668,0.17738 8.66122,1.10787 18.0987,3.61185 28.31155,7.51199 l 36.10709,13.2113 16.20718,-9.35771 44.42653,25.34996 -57.05034,32.93827 -61.67834,-26.62667 c -7.16595,-3.23895 -13.86581,-5.70953 -20.09955,-7.41215 -6.2471,-1.81014 -12.15762,-2.77771 -17.73182,-2.9018 -5.67401,-0.18171 -11.15462,0.44741 -16.4418,1.88641 -5.20073,1.3891 -10.43777,3.60557 -15.71061,6.64986 l -16.726,9.65651 49.40739,28.5258 18.02239,-10.40549 41.0231,23.68421 -81.42692,47.01169 -41.02246,-23.6842 20.35641,-11.75342 -144.77803,-83.58736 -20.35641,11.75277 -41.17253,-23.77066 103.98703,-60.03734 c 10.11349,-5.83903 20.89341,-10.04556 32.33931,-12.61999 10.73057,-2.41354 21.41221,-3.58368 32.04498,-3.50962 z m -4.74052,38.79271 c -0.63997,-9.8e-4 -1.28298,0.009 -1.92903,0.0287 -10.33654,0.32037 -20.77764,3.52474 -31.3233,9.61329 l -25.80207,14.89679 54.94651,31.7239 25.80266,-14.89744 c 4.92709,-2.84464 8.83628,-5.67796 11.72797,-8.50001 2.8783,-2.9296 4.60266,-5.82662 5.17287,-8.69141 0.55683,-2.97231 -0.12695,-5.86203 -2.05109,-8.66976 -1.8377,-2.85759 -5.10205,-5.64086 -9.79323,-8.34932 -8.23453,-4.7542 -17.15179,-7.1391 -26.75129,-7.15466 z"
       id="path4643"
       inkscape:export-filename="C:\Users\emjei\OneDrive\Programming\RUVacant\docs\design\logo\logo.png"
       inkscape:export-xdpi="75.393608"
       inkscape:export-ydpi="75.393608" />
    <path
       inkscape:connector-curvature="0"
       style="opacity:1;fill:#707494;fill-opacity:1;stroke:none;stroke-width:0.32552963px;stroke-linecap:butt;stroke-linejoin:miter;stroke-opacity:1"
       d="m -312.97462,-186.97184 -0.41518,0.99121 -280.61863,161.225561 V 272.02116 l 0.54234,-0.31919 27.02723,17.86344 2.61632,-35.31805 83.93069,-49.4201 31.93052,7.07772 64.45167,-40.77576 17.05216,-33.09404 55.19446,-32.49955 -0.42408,-73.796044 16.9625,-32.9198208 -17.53027,-65.8911442 -0.43616,-75.859861 0.53853,0.84562 26.30622,-26.4709 z M -432.62013,-72.73 l 12.11963,30.817867 -8.05494,4.650241 v 85.792324 c 1.21715,0.563641 2.45488,1.126478 3.53375,1.585684 a 10.292642,16.193005 41.44203 0 1 2.09371,8.997212 10.292642,16.193005 41.44203 0 1 -15.72588,16.619816 10.292642,16.193005 41.44203 0 1 -0.78648,0.14496 l 0.18884,-0.48194 -3.15294,-2.36455 -38.64393,22.31151 v 6.374526 l -37.81548,9.71312 37.81548,-33.952366 v 12.51637 l 34.61487,-19.985112 -2.58389,-1.93791 a 10.292642,16.193005 41.44203 0 1 0.28927,-2.888439 10.292642,16.193005 41.44203 0 1 14.82494,-16.376309 v -82.980815 l -10.83655,6.256273 z m 124.38604,61.350895 a 4.4953056,16.741913 57.355633 0 1 6.4e-4,0 4.4953056,16.741913 57.355633 0 1 2.26728,1.5335502 4.4953056,16.741913 57.355633 0 1 -14.30424,13.520289 4.4953056,16.741913 57.355633 0 1 -14.30423,2.997161 4.4953056,16.741913 57.355633 0 1 14.30423,-13.520288 4.4953056,16.741913 57.355633 0 1 12.03634,-4.5307122 z M -528.67042,115.05228 a 4.4953056,16.741912 57.355633 0 1 2.2679,1.53355 4.4953056,16.741912 57.355633 0 1 -14.30427,13.51966 4.4953056,16.741912 57.355633 0 1 -14.30422,2.99715 4.4953056,16.741912 57.355633 0 1 14.30422,-13.51964 4.4953056,16.741912 57.355633 0 1 12.03637,-4.53072 z m 97.39821,43.57647 a 5.2613534,14.304305 0 0 1 5.26124,14.30487 5.2613534,14.304305 0 0 1 -5.26124,14.30423 5.2613534,14.304305 0 0 1 -5.2619,-14.30423 5.2613534,14.304305 0 0 1 5.2619,-14.30487 z"
       id="path5021"
       inkscape:export-filename="C:\Users\emjei\OneDrive\Programming\RUVacant\docs\design\logo\logo.png"
       inkscape:export-xdpi="75.393608"
       inkscape:export-ydpi="75.393608" />
    <path
       inkscape:connector-curvature="0"
       style="fill:#ffffff;fill-opacity:1;stroke:none;stroke-width:0.32552963px;stroke-linecap:butt;stroke-linejoin:miter;stroke-opacity:1"
       d="M -285.64748,-168.81047 -566.71562,-7.3267768 V 289.44882 l 282.74539,-166.48491 z m -141.00455,97.51839 11.56902,31.472741 -7.84897,4.531347 v 86.672903 a 9.4442028,16.693495 36.948943 0 1 8.83572,6.890168 9.4442028,16.693495 36.948943 0 1 -12.55577,19.805165 9.4442028,16.693495 36.948943 0 1 -11.97849,-1.91948 l -37.9719,21.92239 v 7.848946 l -38.1518,10.45764 38.1518,-33.595676 v 7.84896 l 37.95793,-21.915397 a 9.4442028,16.693495 36.948943 0 1 8.27175,-13.033261 V -30.99189 l -7.84895,4.531347 z m 124.41336,60.208362 a 4.7495322,15.845766 56.611245 0 1 2.92214,1.7815102 4.7495322,15.845766 56.611245 0 1 -13.48597,13.367061 4.7495322,15.845766 56.611245 0 1 -13.4866,2.205594 4.7495322,15.845766 56.611245 0 1 13.4866,-13.367061 4.7495322,15.845766 56.611245 0 1 10.56383,-3.9871042 z M -526.75241,118.85729 a 4.7495322,15.845766 56.611245 0 1 2.35564,1.79104 4.7495322,15.845766 56.611245 0 1 -13.4866,13.36643 4.7495322,15.845766 56.611245 0 1 -13.48595,2.20559 4.7495322,15.845766 56.611245 0 1 13.48595,-13.36643 4.7495322,15.845766 56.611245 0 1 11.13096,-3.99663 z m 101.59322,45.35034 a 5.3999984,13.93704 6.2908323 0 1 4.08757,10.63504 5.3999984,13.93704 6.2908323 0 1 -5.58041,16.70819 5.3999984,13.93704 6.2908323 0 1 -5.58043,-10.26437 5.3999984,13.93704 6.2908323 0 1 5.58043,-16.70819 5.3999984,13.93704 6.2908323 0 1 1.49284,-0.37067 z"
       id="path4645-3"
       inkscape:export-filename="C:\Users\emjei\OneDrive\Programming\RUVacant\docs\design\logo\logo.png"
       inkscape:export-xdpi="75.393608"
       inkscape:export-ydpi="75.393608" />
    <path
       inkscape:connector-curvature="0"
       style="opacity:1;fill:#707494;fill-opacity:1;stroke:none;stroke-width:0.32552963px;stroke-linecap:butt;stroke-linejoin:miter;stroke-opacity:1"
       d="m -228.86417,-184.99717 -0.001,0.27339 -26.85366,16.6675 26.64194,20.15677 -1.45662,253.43118 50.98417,30.02059 5.9104,36.33724 26.04873,-17.51947 0.76423,0.45014 V -73.975031 l 85.56788,52.084745 0.9181,227.634236 80.719907,47.52922 5.019007,35.34225 27.437956,-16.74127 -0.625,-0.42661 V -23.378061 Z"
       id="path5007"
       inkscape:export-filename="C:\Users\emjei\OneDrive\Programming\RUVacant\docs\design\logo\logo.png"
       inkscape:export-xdpi="75.393608"
       inkscape:export-ydpi="75.393608" />
    <path
       inkscape:connector-curvature="0"
       style="fill:#ffffff;fill-opacity:1;stroke:none;stroke-width:0.32552963px;stroke-linecap:butt;stroke-linejoin:miter;stroke-opacity:1"
       d="m -255.67714,-167.70087 -1.66961,290.52885 83.70754,49.28849 V -56.678725 l 85.56788,52.0847442 0.91809,227.6342408 112.551878,66.27261 V -6.0817528 Z"
       id="path4645"
       inkscape:export-filename="C:\Users\emjei\OneDrive\Programming\RUVacant\docs\design\logo\logo.png"
       inkscape:export-xdpi="75.393608"
       inkscape:export-ydpi="75.393608" />
    <path
       style="opacity:1;fill:#707494;fill-opacity:1;fill-rule:nonzero;stroke:none;stroke-width:3.66855001;stroke-linecap:round;stroke-linejoin:round;stroke-miterlimit:4;stroke-dasharray:none;stroke-opacity:0"
       d="m -98.55121,90.447191 a 9.7547344,5.5186577 53.051058 0 0 -2.02779,0.776698 l -0.0842,-0.09509 -10.69082,7.483782 12.02717,15.501379 9.77667,-6.96702 a 9.7547344,5.5186577 53.051058 0 0 1.39423,-0.99373 l 0.45527,-0.32453 -0.13384,-0.15193 a 9.7547344,5.5186577 53.051058 0 0 0.58497,-2.53111 9.7547344,5.5186577 53.051058 0 0 -7.33754,-11.572939 9.7547344,5.5186577 53.051058 0 0 -3.96409,-1.125514 z"
       id="ellipse5252"
       inkscape:connector-curvature="0"
       inkscape:export-filename="C:\Users\emjei\OneDrive\Programming\RUVacant\docs\design\logo\logo.png"
       inkscape:export-xdpi="75.393608"
       inkscape:export-ydpi="75.393608" />
    <ellipse
       style="opacity:1;fill:#ffffff;fill-opacity:1;fill-rule:nonzero;stroke:none;stroke-width:3.94211364;stroke-linecap:round;stroke-linejoin:round;stroke-miterlimit:4;stroke-dasharray:none;stroke-opacity:0"
       id="path5250"
       cx="-122.02711"
       cy="167.80777"
       rx="8.4721537"
       ry="7.3371005"
       transform="matrix(0.8660254,0.5,0,1,0,0)"
       inkscape:export-filename="C:\Users\emjei\OneDrive\Programming\RUVacant\docs\design\logo\logo.png"
       inkscape:export-xdpi="75.393608"
       inkscape:export-ydpi="75.393608" />
  </g>
</svg>
