<?xml version="1.0" encoding="UTF-8" standalone="no"?>
<!-- Created with Inkscape (http://www.inkscape.org/) -->

<svg
   xmlns:dc="http://purl.org/dc/elements/1.1/"
   xmlns:cc="http://creativecommons.org/ns#"
   xmlns:rdf="http://www.w3.org/1999/02/22-rdf-syntax-ns#"
   xmlns:svg="http://www.w3.org/2000/svg"
   xmlns="http://www.w3.org/2000/svg"
   xmlns:sodipodi="http://sodipodi.sourceforge.net/DTD/sodipodi-0.dtd"
   xmlns:inkscape="http://www.inkscape.org/namespaces/inkscape"
   width="144.002"
   height="185.145"
   viewBox="0 0 38.100528 48.986284"
   version="1.1"
   id="svg1059"
   inkscape:version="0.92.3 (2405546, 2018-03-11)"
   sodipodi:docname="download_locations.svg">
  <defs
     id="defs1053" />
  <sodipodi:namedview
     id="base"
     pagecolor="#ffffff"
     bordercolor="#666666"
     borderopacity="1.0"
     inkscape:pageopacity="0.0"
     inkscape:pageshadow="2"
     inkscape:zoom="1.979899"
     inkscape:cx="5.2580401"
     inkscape:cy="36.175377"
     inkscape:document-units="mm"
     inkscape:current-layer="layer1"
     showgrid="false"
     units="px"
     inkscape:window-width="1920"
     inkscape:window-height="1046"
     inkscape:window-x="1589"
     inkscape:window-y="-11"
     inkscape:window-maximized="1" />
  <metadata
     id="metadata1056">
    <rdf:RDF>
      <cc:Work
         rdf:about="">
        <dc:format>image/svg+xml</dc:format>
        <dc:type
           rdf:resource="http://purl.org/dc/dcmitype/StillImage" />
        <dc:title></dc:title>
      </cc:Work>
    </rdf:RDF>
  </metadata>
  <g
     inkscape:label="Layer 1"
     inkscape:groupmode="layer"
     id="layer1"
     transform="translate(0,-248.0137)">
    <g
       transform="translate(-135.35453,152.37057)"
       id="g1043"
       style="fill:#ffffff">
      <path
         id="path852"
         transform="scale(0.26458333)"
         d="m 511.57617,361.48633 v 185.14453 h 61.71485 v -36.00195 h 20.57226 v 36.00195 h 19.74805 a 29.910902,29.910902 0 0 1 -11.38477,-23.44141 29.910902,29.910902 0 0 1 29.91016,-29.91015 29.910902,29.910902 0 0 1 23.4414,11.33203 v -143.125 z m 20.57227,20.57226 h 20.57226 v 20.57032 h -20.57226 z m 41.14258,0 h 20.57226 v 20.57032 h -20.57226 z m 41.14453,0 h 20.57031 v 20.57032 h -20.57031 z m -82.28711,41.14258 h 20.57226 v 20.57031 h -20.57226 z m 41.14258,0 h 20.57226 v 20.57031 h -20.57226 z m 41.14453,0 h 20.57031 v 20.57031 h -20.57031 z m -82.28711,41.14258 h 20.57226 v 20.57227 h -20.57226 z m 41.14258,0 h 20.57226 v 20.57227 h -20.57226 z m 41.14453,0 h 20.57031 v 20.57227 h -20.57031 z m -82.28711,41.14258 h 20.57226 v 20.57226 h -20.57226 z"
         style="fill:#ffffff;stroke-width:10.28577423"
         inkscape:connector-curvature="0" />
      <path
         style="fill:#ffffff;stroke-width:0.62019128"
         inkscape:connector-curvature="0"
         d="m 167.25307,132.22534 c 3.41105,0 6.2019,2.79087 6.2019,6.20193 0,3.41103 -2.79085,6.2019 -6.2019,6.2019 -3.41106,0 -6.20191,-2.79087 -6.20191,-6.2019 0,-3.41106 2.79085,-6.20193 6.20191,-6.20193 m -2.48076,9.30286 h 4.96152 v -1.24036 h -4.96152 v 1.24036 m 4.96152,-4.34132 h -1.55047 v -2.48076 h -1.86057 v 2.48076 h -1.55048 l 2.48076,2.48075 z"
         id="path828-4" />
    </g>
  </g>
</svg>
