<?xml version="1.0" encoding="UTF-8" standalone="no"?>
<!-- Created with Inkscape (http://www.inkscape.org/) -->

<svg
   xmlns:dc="http://purl.org/dc/elements/1.1/"
   xmlns:cc="http://creativecommons.org/ns#"
   xmlns:rdf="http://www.w3.org/1999/02/22-rdf-syntax-ns#"
   xmlns:svg="http://www.w3.org/2000/svg"
   xmlns="http://www.w3.org/2000/svg"
   xmlns:sodipodi="http://sodipodi.sourceforge.net/DTD/sodipodi-0.dtd"
   xmlns:inkscape="http://www.inkscape.org/namespaces/inkscape"
   width="144.002"
   height="185.145"
   viewBox="0 0 38.100528 48.986284"
   version="1.1"
   id="svg1059"
   inkscape:version="0.92.3 (2405546, 2018-03-11)"
   sodipodi:docname="save_locations.svg">
  <defs
     id="defs1053" />
  <sodipodi:namedview
     id="base"
     pagecolor="#ffffff"
     bordercolor="#666666"
     borderopacity="1.0"
     inkscape:pageopacity="0.0"
     inkscape:pageshadow="2"
     inkscape:zoom="1.979899"
     inkscape:cx="5.2580401"
     inkscape:cy="36.175377"
     inkscape:document-units="mm"
     inkscape:current-layer="layer1"
     showgrid="false"
     units="px"
     inkscape:window-width="1920"
     inkscape:window-height="1046"
     inkscape:window-x="1589"
     inkscape:window-y="-11"
     inkscape:window-maximized="1" />
  <metadata
     id="metadata1056">
    <rdf:RDF>
      <cc:Work
         rdf:about="">
        <dc:format>image/svg+xml</dc:format>
        <dc:type
           rdf:resource="http://purl.org/dc/dcmitype/StillImage" />
        <dc:title></dc:title>
      </cc:Work>
    </rdf:RDF>
  </metadata>
  <g
     inkscape:label="Layer 1"
     inkscape:groupmode="layer"
     id="layer1"
     transform="translate(0,-248.0137)">
    <g
       transform="translate(-136.76788,92.036268)"
       id="g1051">
      <path
         id="path852-1"
         transform="scale(0.26458333)"
         d="m 516.91797,589.52148 v 185.14454 h 61.71484 v -36.00196 h 20.57227 v 36.00196 h 19.74609 a 29.910902,29.910902 0 0 1 -11.38281,-23.44141 29.910902,29.910902 0 0 1 29.91016,-29.91016 29.910902,29.910902 0 0 1 23.4414,11.33203 v -143.125 z m 20.57226,20.57227 h 20.57227 v 20.57031 h -20.57227 z m 41.14258,0 h 20.57227 v 20.57031 h -20.57227 z m 41.14453,0 h 20.57032 v 20.57031 h -20.57032 z m -82.28711,41.14258 h 20.57227 v 20.57031 h -20.57227 z m 41.14258,0 h 20.57227 v 20.57031 h -20.57227 z m 41.14453,0 h 20.57032 v 20.57031 h -20.57032 z m -82.28711,41.14258 h 20.57227 v 20.57226 h -20.57227 z m 41.14258,0 h 20.57227 v 20.57226 h -20.57227 z m 41.14453,0 h 20.57032 v 20.57226 h -20.57032 z m -82.28711,41.14257 h 20.57227 v 20.57227 h -20.57227 z"
         style="fill:#ffffff;stroke-width:10.28577423"
         inkscape:connector-curvature="0" />
      <path
         inkscape:connector-curvature="0"
         id="path925-8"
         d="m 168.66627,192.55948 a 6.201977,6.201977 0 0 0 -6.202,6.202 6.201977,6.201977 0 0 0 6.202,6.202 6.201977,6.201977 0 0 0 6.202,-6.202 6.201977,6.201977 0 0 0 -6.202,-6.202 z m -2.64593,2.80061 h 4.53519 l 1.51153,1.51153 v 4.53518 a 0.75583693,0.75583693 0 0 1 -0.75547,0.75547 h -5.29125 a 0.75583693,0.75583693 0 0 1 -0.75546,-0.75547 v -5.29065 c 0,-0.41569 0.33594,-0.75606 0.75546,-0.75606 z m 0,0.75606 v 1.51153 h 3.77972 v -1.51153 z m 2.64593,3.02306 a 1.1337555,1.1337555 0 0 0 -1.1338,1.1338 1.1337555,1.1337555 0 0 0 1.1338,1.13379 1.1337555,1.1337555 0 0 0 1.13379,-1.13379 1.1337555,1.1337555 0 0 0 -1.13379,-1.1338 z"
         style="opacity:1;fill:#ffffff;fill-opacity:1;fill-rule:nonzero;stroke:none;stroke-width:0.30698219;stroke-linecap:round;stroke-linejoin:round;stroke-miterlimit:4;stroke-dasharray:none;stroke-opacity:1;paint-order:normal" />
    </g>
  </g>
</svg>
